<svg xmlns="http://www.w3.org/2000/svg" xmlns:xlink="http://www.w3.org/1999/xlink" width="56" height="56" version="1.1" viewBox="0 0 56 56"><title>Shape</title><desc>Created with Sketch.</desc><g id="Page-1" fill="none" fill-rule="evenodd" stroke="none" stroke-width="1"><g id="1280" fill="#569CD9" transform="translate(-946.000000, -1341.000000)"><g id="Group-14" transform="translate(100.000000, 984.000000)"><g id="Group-31" transform="translate(619.000000, 0.000000)"><g id="Group-20" transform="translate(192.000000, 322.000000)"><g id="Group-28" transform="translate(37.000000, 37.000000)"><path id="Shape" d="M16.5967239,22.9588014 C14.7941944,22.9487874 12.9944419,23.1015442 11.2193854,23.4152113 C12.679888,10.0894275 23.9370486,-0.000774085532 37.3426288,0 C45.5497088,0 51.1732321,3.9638509 51.1732321,12.1709309 C51.1732321,20.3780109 44.4238977,24.3418617 34.5765082,24.3418617 C27.3071431,24.3418617 23.866089,22.9588014 16.5967239,22.9588014 Z M16.5967239,27.7397709 C6.74933439,27.7397709 0,31.7036218 0,39.9107018 C0,48.1177818 5.62352329,52.0816327 13.8306033,52.0816327 C27.2361835,52.0824067 38.493344,41.9922051 39.9538467,28.6664213 C38.1787902,28.9800884 36.3790377,29.1328452 34.5765082,29.1228312 C27.3071431,29.1228312 23.866089,27.7397709 16.5967239,27.7397709 Z"/></g></g></g></g></g></g></svg>